<svg xmlns="http://www.w3.org/2000/svg" width="1180" height="310" viewBox="0 0 1180 310"><style>.title{font:700 18px Arial,sans-serif;fill:#111827}.label{font:700 13px Arial,sans-serif;fill:#111827}.small{font:12px Arial,sans-serif;fill:#334155}.axis{font:700 12px Arial,sans-serif;fill:#111827}.riskText{font:700 14px Arial,sans-serif;fill:#dc2626}.nodeText{font:700 10px Arial,sans-serif;fill:#111827}</style><rect width="100%" height="100%" fill="#ffffff"/><text x="24" y="30" class="title">Detected component architecture</text><rect x="50" y="75" width="180" height="150" rx="8" fill="#f8fafc" stroke="#334155"/><text x="64" y="105" class="label">auth</text><text x="64" y="130" class="small">auth</text><rect x="64" y="152" width="152" height="26" rx="4" fill="#dbeafe"/><text x="74" y="170" class="small">API 32</text><rect x="64" y="187" width="152" height="26" rx="4" fill="#e5e7eb"/><text x="74" y="205" class="small">Impl 0</text><rect x="270" y="75" width="180" height="150" rx="8" fill="#f8fafc" stroke="#334155"/><text x="284" y="105" class="label">etcdserver</text><text x="284" y="130" class="small">etcdserver</text><rect x="284" y="152" width="152" height="26" rx="4" fill="#dbeafe"/><text x="294" y="170" class="small">API 358</text><rect x="284" y="187" width="152" height="26" rx="4" fill="#e5e7eb"/><text x="294" y="205" class="small">Impl 29</text><rect x="490" y="75" width="180" height="150" rx="8" fill="#f8fafc" stroke="#334155"/><text x="504" y="105" class="label">lease</text><text x="504" y="130" class="small">lease</text><rect x="504" y="152" width="152" height="26" rx="4" fill="#dbeafe"/><text x="514" y="170" class="small">API 21</text><rect x="504" y="187" width="152" height="26" rx="4" fill="#e5e7eb"/><text x="514" y="205" class="small">Impl 10</text><rect x="710" y="75" width="180" height="150" rx="8" fill="#f8fafc" stroke="#334155"/><text x="724" y="105" class="label">proxy</text><text x="724" y="130" class="small">proxy</text><rect x="724" y="152" width="152" height="26" rx="4" fill="#dbeafe"/><text x="734" y="170" class="small">API 3</text><rect x="724" y="187" width="152" height="26" rx="4" fill="#e5e7eb"/><text x="734" y="205" class="small">Impl 70</text><rect x="930" y="75" width="180" height="150" rx="8" fill="#f8fafc" stroke="#334155"/><text x="944" y="105" class="label">storage</text><text x="944" y="130" class="small">storage</text><rect x="944" y="152" width="152" height="26" rx="4" fill="#dbeafe"/><text x="954" y="170" class="small">API 175</text><rect x="944" y="187" width="152" height="26" rx="4" fill="#e5e7eb"/><text x="954" y="205" class="small">Impl 15</text></svg>