<svg xmlns="http://www.w3.org/2000/svg" width="760" height="250" viewBox="0 0 760 250"><style>.title{font:700 18px Arial,sans-serif;fill:#111827}.label{font:700 13px Arial,sans-serif;fill:#111827}.small{font:12px Arial,sans-serif;fill:#334155}.axis{font:700 12px Arial,sans-serif;fill:#111827}.riskText{font:700 14px Arial,sans-serif;fill:#dc2626}.nodeText{font:700 10px Arial,sans-serif;fill:#111827}</style><rect width="100%" height="100%" fill="#ffffff"/><text x="24" y="28" class="title">Dependency kinds</text><text x="24" y="74" class="label">extends</text><rect x="300" y="58" width="25" height="18" fill="#2563eb" rx="3"/><text x="335" y="72" class="small">31</text><text x="24" y="104" class="label">implements</text><rect x="300" y="88" width="0" height="18" fill="#2563eb" rx="3"/><text x="310" y="102" class="small">0</text><text x="24" y="134" class="label">imports</text><rect x="300" y="118" width="470" height="18" fill="#2563eb" rx="3"/><text x="780" y="132" class="small">580</text><text x="24" y="164" class="label">instantiates</text><rect x="300" y="148" width="188" height="18" fill="#2563eb" rx="3"/><text x="498" y="162" class="small">232</text><text x="24" y="194" class="label">calls</text><rect x="300" y="178" width="355" height="18" fill="#2563eb" rx="3"/><text x="665" y="192" class="small">438</text><text x="24" y="224" class="label">uses</text><rect x="300" y="208" width="70" height="18" fill="#2563eb" rx="3"/><text x="380" y="222" class="small">86</text></svg>