<svg xmlns="http://www.w3.org/2000/svg" width="760" height="730" viewBox="0 0 760 730"><style>.title{font:700 18px Arial,sans-serif;fill:#111827}.label{font:700 13px Arial,sans-serif;fill:#111827}.small{font:12px Arial,sans-serif;fill:#334155}.axis{font:700 12px Arial,sans-serif;fill:#111827}.riskText{font:700 14px Arial,sans-serif;fill:#dc2626}.nodeText{font:700 10px Arial,sans-serif;fill:#111827}</style><rect width="100%" height="100%" fill="#ffffff"/><text x="24" y="28" class="title">Architecture levels</text><text x="24" y="74" class="label">Level 0</text><rect x="300" y="58" width="470" height="18" fill="#2563eb" rx="3"/><text x="780" y="72" class="small">386</text><text x="24" y="104" class="label">Level 1</text><rect x="300" y="88" width="178" height="18" fill="#2563eb" rx="3"/><text x="488" y="102" class="small">146</text><text x="24" y="134" class="label">Level 2</text><rect x="300" y="118" width="121" height="18" fill="#2563eb" rx="3"/><text x="431" y="132" class="small">99</text><text x="24" y="164" class="label">Level 3</text><rect x="300" y="148" width="50" height="18" fill="#2563eb" rx="3"/><text x="360" y="162" class="small">41</text><text x="24" y="194" class="label">Level 4</text><rect x="300" y="178" width="32" height="18" fill="#2563eb" rx="3"/><text x="342" y="192" class="small">26</text><text x="24" y="224" class="label">Level 5</text><rect x="300" y="208" width="16" height="18" fill="#2563eb" rx="3"/><text x="326" y="222" class="small">13</text><text x="24" y="254" class="label">Level 6</text><rect x="300" y="238" width="4" height="18" fill="#2563eb" rx="3"/><text x="314" y="252" class="small">3</text><text x="24" y="284" class="label">Level 7</text><rect x="300" y="268" width="17" height="18" fill="#2563eb" rx="3"/><text x="327" y="282" class="small">14</text><text x="24" y="314" class="label">Level 8</text><rect x="300" y="298" width="28" height="18" fill="#2563eb" rx="3"/><text x="338" y="312" class="small">23</text><text x="24" y="344" class="label">Level 9</text><rect x="300" y="328" width="6" height="18" fill="#2563eb" rx="3"/><text x="316" y="342" class="small">5</text><text x="24" y="374" class="label">Level 10</text><rect x="300" y="358" width="7" height="18" fill="#2563eb" rx="3"/><text x="317" y="372" class="small">6</text><text x="24" y="404" class="label">Level 11</text><rect x="300" y="388" width="6" height="18" fill="#2563eb" rx="3"/><text x="316" y="402" class="small">5</text><text x="24" y="434" class="label">Level 12</text><rect x="300" y="418" width="12" height="18" fill="#2563eb" rx="3"/><text x="322" y="432" class="small">10</text><text x="24" y="464" class="label">Level 13</text><rect x="300" y="448" width="6" height="18" fill="#2563eb" rx="3"/><text x="316" y="462" class="small">5</text><text x="24" y="494" class="label">Level 14</text><rect x="300" y="478" width="17" height="18" fill="#2563eb" rx="3"/><text x="327" y="492" class="small">14</text><text x="24" y="524" class="label">Level 15</text><rect x="300" y="508" width="17" height="18" fill="#2563eb" rx="3"/><text x="327" y="522" class="small">14</text><text x="24" y="554" class="label">Level 16</text><rect x="300" y="538" width="4" height="18" fill="#2563eb" rx="3"/><text x="314" y="552" class="small">3</text><text x="24" y="584" class="label">Level 17</text><rect x="300" y="568" width="2" height="18" fill="#2563eb" rx="3"/><text x="312" y="582" class="small">2</text><text x="24" y="614" class="label">Level 18</text><rect x="300" y="598" width="2" height="18" fill="#2563eb" rx="3"/><text x="312" y="612" class="small">2</text><text x="24" y="644" class="label">Level 19</text><rect x="300" y="628" width="1" height="18" fill="#2563eb" rx="3"/><text x="311" y="642" class="small">1</text><text x="24" y="674" class="label">Level 20</text><rect x="300" y="658" width="1" height="18" fill="#2563eb" rx="3"/><text x="311" y="672" class="small">1</text><text x="24" y="704" class="label">Level 21</text><rect x="300" y="688" width="1" height="18" fill="#2563eb" rx="3"/><text x="311" y="702" class="small">1</text></svg>