<svg xmlns="http://www.w3.org/2000/svg" width="760" height="370" viewBox="0 0 760 370"><style>.title{font:700 18px Arial,sans-serif;fill:#111827}.label{font:700 13px Arial,sans-serif;fill:#111827}.small{font:12px Arial,sans-serif;fill:#334155}.axis{font:700 12px Arial,sans-serif;fill:#111827}.riskText{font:700 14px Arial,sans-serif;fill:#dc2626}.nodeText{font:700 10px Arial,sans-serif;fill:#111827}</style><rect width="100%" height="100%" fill="#ffffff"/><text x="24" y="28" class="title">Top packages by classes</text><text x="24" y="74" class="label">storage.mvcc</text><rect x="300" y="58" width="470" height="18" fill="#2563eb" rx="3"/><text x="780" y="72" class="small">70</text><text x="24" y="104" class="label">etcdserver.api.rafthttp</text><rect x="300" y="88" width="403" height="18" fill="#2563eb" rx="3"/><text x="713" y="102" class="small">60</text><text x="24" y="134" class="label">etcdserver</text><rect x="300" y="118" width="383" height="18" fill="#2563eb" rx="3"/><text x="693" y="132" class="small">57</text><text x="24" y="164" class="label">etcdserver.api.v3rpc</text><rect x="300" y="148" width="282" height="18" fill="#2563eb" rx="3"/><text x="592" y="162" class="small">42</text><text x="24" y="194" class="label">storage.schema</text><rect x="300" y="178" width="255" height="18" fill="#2563eb" rx="3"/><text x="565" y="192" class="small">38</text><text x="24" y="224" class="label">storage.backend</text><rect x="300" y="208" width="242" height="18" fill="#2563eb" rx="3"/><text x="552" y="222" class="small">36</text><text x="24" y="254" class="label">proxy.grpcproxy</text><rect x="300" y="238" width="228" height="18" fill="#2563eb" rx="3"/><text x="538" y="252" class="small">34</text><text x="24" y="284" class="label">auth</text><rect x="300" y="268" width="215" height="18" fill="#2563eb" rx="3"/><text x="525" y="282" class="small">32</text><text x="24" y="314" class="label">proxy.grpcproxy.adapter</text><rect x="300" y="298" width="201" height="18" fill="#2563eb" rx="3"/><text x="511" y="312" class="small">30</text><text x="24" y="344" class="label">etcdserver.api.v2store</text><rect x="300" y="328" width="188" height="18" fill="#2563eb" rx="3"/><text x="498" y="342" class="small">28</text></svg>