<svg xmlns="http://www.w3.org/2000/svg" width="760" height="370" viewBox="0 0 760 370"><style>.title{font:700 18px Arial,sans-serif;fill:#111827}.label{font:700 13px Arial,sans-serif;fill:#111827}.small{font:12px Arial,sans-serif;fill:#334155}.axis{font:700 12px Arial,sans-serif;fill:#111827}.riskText{font:700 14px Arial,sans-serif;fill:#dc2626}.nodeText{font:700 10px Arial,sans-serif;fill:#111827}</style><rect width="100%" height="100%" fill="#ffffff"/><text x="24" y="28" class="title">Top packages by dependencies</text><text x="24" y="74" class="label">etcdserver</text><rect x="300" y="58" width="470" height="18" fill="#2563eb" rx="3"/><text x="780" y="72" class="small">505</text><text x="24" y="104" class="label">storage.backend.testing</text><rect x="300" y="88" width="365" height="18" fill="#2563eb" rx="3"/><text x="675" y="102" class="small">392</text><text x="24" y="134" class="label">storage</text><rect x="300" y="118" width="235" height="18" fill="#2563eb" rx="3"/><text x="545" y="132" class="small">253</text><text x="24" y="164" class="label">storage.backend</text><rect x="300" y="148" width="160" height="18" fill="#2563eb" rx="3"/><text x="470" y="162" class="small">172</text><text x="24" y="194" class="label">storage.mvcc</text><rect x="300" y="178" width="156" height="18" fill="#2563eb" rx="3"/><text x="466" y="192" class="small">168</text><text x="24" y="224" class="label">storage.schema</text><rect x="300" y="208" width="150" height="18" fill="#2563eb" rx="3"/><text x="460" y="222" class="small">161</text><text x="24" y="254" class="label">etcdserver.api</text><rect x="300" y="238" width="131" height="18" fill="#2563eb" rx="3"/><text x="441" y="252" class="small">141</text><text x="24" y="284" class="label">lease</text><rect x="300" y="268" width="88" height="18" fill="#2563eb" rx="3"/><text x="398" y="282" class="small">95</text><text x="24" y="314" class="label">etcdserver.api.membership</text><rect x="300" y="298" width="68" height="18" fill="#2563eb" rx="3"/><text x="378" y="312" class="small">73</text><text x="24" y="344" class="label">etcdserver.api.v2error</text><rect x="300" y="328" width="67" height="18" fill="#2563eb" rx="3"/><text x="377" y="342" class="small">72</text></svg>